Coordinates
version=1
nRows=16
nColumns=38
inDegrees=no

Units are S.I. units (second, meters, Newtons, ...)
If the header above contains a line with 'inDegrees', this indicates whether rotational values are in degrees (yes) or radians (no).

endheader
time	pelvis_tilt	pelvis_list	pelvis_rotation	pelvis_tx	pelvis_ty	pelvis_tz	hip_flexion_r	hip_adduction_r	hip_rotation_r	knee_angle_r	ankle_angle_r	subtalar_angle_r	mtp_angle_r	hip_flexion_l	hip_adduction_l	hip_rotation_l	knee_angle_l	ankle_angle_l	subtalar_angle_l	mtp_angle_l	lumbar_extension	lumbar_bending	lumbar_rotation	arm_flex_r	arm_add_r	arm_rot_r	elbow_flex_r	pro_sup_r	wrist_flex_r	wrist_dev_r	arm_flex_l	arm_add_l	arm_rot_l	elbow_flex_l	pro_sup_l	wrist_flex_l	wrist_dev_l
1.24	0.0480885	0.0995961	0.116651	0.92717	1.05306	-0.358633	-0.292699	-0.274363	-0.621704	-1.46248	-0.106389	0.0572385	-0.00103051	0.424012	0.161994	-0.301241	-0.275129	-0.154026	0.0383731	-0.00844347	-0.278376	-0.111932	0.195734	-0.535081	-0.238726	0.0273819	2.20935	1.7593	0.0174779	0.0264633	-0.721131	-0.203605	-0.139016	2.10565	1.56172	0.0183905	0.00885961
1.25	0.050432	0.104973	0.120258	0.925303	1.04705	-0.358754	-0.243122	-0.291127	-0.601299	-1.57462	-0.0734461	0.0572385	-0.00103051	0.411599	0.171463	-0.275508	-0.320042	-0.129771	0.0383731	-0.00844347	-0.287947	-0.117868	0.176912	-0.552957	-0.240373	0.00538735	2.18067	1.74201	0.0174779	0.0264633	-0.689394	-0.21202	-0.142141	2.08553	1.55645	0.0183905	0.00885961
1.26	0.0519835	0.109806	0.122762	0.923214	1.04009	-0.358713	-0.186117	-0.304663	-0.574586	-1.68062	-0.0451707	0.0572385	-0.00103051	0.401412	0.179643	-0.248918	-0.378546	-0.0901677	0.0383731	-0.00844347	-0.296948	-0.123027	0.155705	-0.567919	-0.243547	-0.0165531	2.1492	1.72515	0.0174779	0.0264633	-0.656359	-0.220675	-0.14571	2.06493	1.54997	0.0183905	0.00885961
1.27	0.0525257	0.114294	0.12448	0.920869	1.03225	-0.358536	-0.121796	-0.315747	-0.543428	-1.7793	-0.0209928	0.0572385	-0.00103051	0.39295	0.187156	-0.222821	-0.447631	-0.0348076	0.0383731	-0.00844347	-0.305185	-0.12764	0.131813	-0.579693	-0.247777	-0.0381196	2.1153	1.70958	0.0174779	0.0264633	-0.622059	-0.229585	-0.149485	2.04472	1.54207	0.0183905	0.00885961
1.28	0.0518101	0.118556	0.125862	0.918208	1.02387	-0.358236	-0.0505452	-0.325161	-0.509934	-1.86925	-1.96348e-05	0.0572385	-0.00103051	0.385311	0.194373	-0.198272	-0.523259	0.0345862	0.0383731	-0.00844347	-0.312331	-0.131856	0.104932	-0.588126	-0.252491	-0.0590051	2.0795	1.69634	0.0174779	0.0264633	-0.58648	-0.238746	-0.153124	2.02602	1.53275	0.0183905	0.00885961
1.29	0.0496029	0.122399	0.127341	0.915233	1.01552	-0.357806	0.0269477	-0.333327	-0.476192	-1.94877	0.018767	0.0572385	-0.00103051	0.377113	0.201121	-0.175901	-0.60036	0.114068	0.0383731	-0.00844347	-0.317903	-0.135544	0.0749982	-0.593306	-0.257083	-0.0789049	2.04259	1.68631	0.0174779	0.0264633	-0.549625	-0.248062	-0.156139	2.01016	1.52238	0.0183905	0.00885961
1.3	0.0458744	0.125206	0.129156	0.912068	1.00786	-0.357261	0.109575	-0.340035	-0.44404	-2.01597	0.0363221	0.0572385	-0.00103051	0.366493	0.206537	-0.155871	-0.673233	0.198058	0.0383731	-0.00844347	-0.321409	-0.138093	0.0426049	-0.595848	-0.260918	-0.0977087	2.00591	1.68009	0.0174779	0.0264633	-0.511467	-0.257347	-0.157728	1.99863	1.51169	0.0183905	0.00885961
1.31	0.0407667	0.12599	0.1312	0.908866	1.00135	-0.356645	0.195744	-0.344371	-0.414937	-2.06891	0.0533603	0.0572385	-0.00103051	0.351238	0.209147	-0.138052	-0.736167	0.280196	0.0383731	-0.00844347	-0.322417	-0.138429	0.0089771	-0.596802	-0.263509	-0.115334	1.97127	1.67773	0.0174779	0.0264633	-0.472134	-0.266198	-0.156985	1.99293	1.50172	0.0183905	0.00885961
1.32	0.0346534	0.123501	0.13298	0.905782	0.996223	-0.35601	0.283359	-0.344868	-0.389902	-2.10578	0.0702601	0.0572385	-0.00103051	0.329067	0.207153	-0.122364	-0.784201	0.354131	0.0383731	-0.00844347	-0.320696	-0.135153	-0.0240516	-0.597647	-0.264571	-0.131762	1.94084	1.67859	0.0174779	0.0264633	-0.431935	-0.27399	-0.15297	1.99439	1.49374	0.0183905	0.00885961
1.33	0.028048	0.116516	0.133707	0.903026	0.992653	-0.355381	0.370019	-0.339893	-0.369549	-2.12515	0.0870319	0.0572385	-0.00103051	0.298021	0.198882	-0.109154	-0.813621	0.41393	0.0383731	-0.00844347	-0.316126	-0.12693	-0.0545501	-0.599882	-0.264165	-0.146747	1.91681	1.68136	0.0174779	0.0264633	-0.391544	-0.279847	-0.14509	2.00399	1.48898	0.0183905	0.00885961
1.34	0.0214803	0.104189	0.132465	0.900843	0.990795	-0.354752	0.453255	-0.32809	-0.354133	-2.12615	0.103377	0.0572385	-0.00103051	0.256804	0.183239	-0.0994052	-0.822246	0.454271	0.0383731	-0.00844347	-0.308697	-0.11284	-0.0808646	-0.604752	-0.262645	-0.159817	1.90096	1.68435	0.0174779	0.0264633	-0.351969	-0.282797	-0.133189	2.02221	1.48848	0.0183905	0.00885961
1.35	0.0153635	0.0862746	0.128397	0.899453	0.990731	-0.3541	0.530773	-0.308743	-0.343596	-2.10857	0.118811	0.0572385	-0.00103051	0.205019	0.160015	-0.094674	-0.809552	0.470674	0.0383731	-0.00844347	-0.298566	-0.0925803	-0.101743	-0.613208	-0.260447	-0.170572	1.89447	1.68595	0.0174779	0.0264633	-0.314285	-0.28203	-0.117328	2.04888	1.4929	0.0183905	0.00885961
1.36	0.00981793	0.0632509	0.120899	0.89901	0.992409	-0.353396	0.600733	-0.28201	-0.337625	-2.07284	0.132784	0.0572385	-0.00103051	0.143345	0.130041	-0.0968107	-0.776596	0.459828	0.0383731	-0.00844347	-0.285944	-0.0666322	-0.116641	-0.625694	-0.257997	-0.178704	1.89765	1.68515	0.0174779	0.0264633	-0.279571	-0.277078	-0.0977743	2.08323	1.50242	0.0183905	0.00885961
1.37	0.00466561	0.0362188	0.10977	0.899591	0.995659	-0.3526	0.661874	-0.248957	-0.335728	-2.01995	0.144765	0.0572385	-0.00103051	0.073553	0.0951052	-0.107517	-0.725955	0.420115	0.0383731	-0.00844347	-0.2711	-0.0361886	-0.125687	-0.642232	-0.255563	-0.184217	1.91001	1.68177	0.0174779	0.0264633	-0.248676	-0.267951	-0.0747788	2.12397	1.51668	0.0183905	0.00885961
1.38	-0.000477064	0.00685365	0.0953133	0.901178	1.00022	-0.351671	0.713527	-0.211472	-0.337339	-1.95126	0.154261	0.0572385	-0.00103051	-0.00160108	0.057705	-0.127868	-0.661579	0.352108	0.0383731	-0.00844347	-0.254275	-0.0030097	-0.129804	-0.662327	-0.253289	-0.18729	1.93026	1.67643	0.0174779	0.0264633	-0.222232	-0.25513	-0.048666	2.16951	1.53495	0.0183905	0.00885961
1.39	-0.00606921	-0.022828	0.0783326	0.903657	1.00576	-0.350583	0.755467	-0.17204	-0.341907	-1.86827	0.16078	0.0572385	-0.00103051	-0.0786834	0.0206875	-0.157894	-0.588635	0.25896	0.0383731	-0.00844347	-0.235779	0.0308163	-0.130548	-0.685078	-0.251184	-0.188264	1.95657	1.67034	0.0174779	0.0264633	-0.200552	-0.239497	-0.0198161	2.21811	1.55617	0.0183905	0.00885961
